<mxfile host="app.diagrams.net" modified="2023-09-05T17:44:47.356Z" agent="Mozilla/5.0 (X11; Linux x86_64) AppleWebKit/537.36 (KHTML, like Gecko) Chrome/116.0.0.0 Safari/537.36" version="21.7.0" etag="fMmwIJIV10zYh8Qefdjn" type="github">
  <diagram name="PÃ¡gina-1" id="WIXDK8lDojRQ6exJ8fGp">
    <mxGraphModel>
      <root>
        <mxCell id="0" />
        <mxCell id="1" parent="0" />
      </root>
    </mxGraphModel>
  </diagram>
</mxfile>
